HIERARCHY
ROOT Hips
{
	OFFSET 0.000000 0.000000 0.000000 
	CHANNELS 6 Xposition Yposition Zposition Zrotation Yrotation Xrotation
	JOINT LHipJoint
	{
		OFFSET 0.000000 0.000000 0.000000 
		CHANNELS 3 Zrotation Yrotation Xrotation
		JOINT LeftUpLeg
		{
			OFFSET 0.103546 -0.112676 0.039048 
			CHANNELS 3 Zrotation Yrotation Xrotation
			JOINT LeftLeg
			{
				OFFSET 0.162325 -0.445985 0.000000 
				CHANNELS 3 Zrotation Yrotation Xrotation
				JOINT LeftFoot
				{
					OFFSET 0.155773 -0.427981 0.000000 
					CHANNELS 3 Zrotation Yrotation Xrotation
					JOINT LeftToeBase
					{
						OFFSET 0.012315 -0.033835 0.134113 
						CHANNELS 3 Zrotation Yrotation Xrotation
						End Site
						{
							OFFSET 0.000000 -0.000000 0.069531 
						}
					}
				}
			}
		}
	}
	JOINT RHipJoint
	{
		OFFSET 0.000000 0.000000 0.000000 
		CHANNELS 3 Zrotation Yrotation Xrotation
		JOINT RightUpLeg
		{
			OFFSET -0.100669 -0.112676 0.039047 
			CHANNELS 3 Zrotation Yrotation Xrotation
			JOINT RightLeg
			{
				OFFSET -0.162189 -0.445611 0.000000 
				CHANNELS 3 Zrotation Yrotation Xrotation
				JOINT RightFoot
				{
					OFFSET -0.154237 -0.423765 0.000000 
					CHANNELS 3 Zrotation Yrotation Xrotation
					JOINT RightToeBase
					{
						OFFSET -0.014390 -0.039536 0.133355 
						CHANNELS 3 Zrotation Yrotation Xrotation
						End Site
						{
							OFFSET -0.000000 -0.000000 0.069731 
						}
					}
				}
			}
		}
	}
	JOINT LowerBack
	{
		OFFSET 0.000000 0.000000 0.000000 
		CHANNELS 3 Zrotation Yrotation Xrotation
		JOINT Spine
		{
			OFFSET 0.001226 0.128406 -0.008820 
			CHANNELS 3 Zrotation Yrotation Xrotation
			JOINT Spine1
			{
				OFFSET 0.000638 0.129022 -0.003701 
				CHANNELS 3 Zrotation Yrotation Xrotation
				JOINT Neck
				{
					OFFSET 0.000000 0.000000 0.000000 
					CHANNELS 3 Zrotation Yrotation Xrotation
					JOINT Neck1
					{
						OFFSET 0.000446 0.097944 0.009355 
						CHANNELS 3 Zrotation Yrotation Xrotation
						JOINT Head
						{
							OFFSET 0.002143 0.097526 -0.006254 
							CHANNELS 3 Zrotation Yrotation Xrotation
							End Site
							{
								OFFSET 0.000816 0.101600 -0.003291 
							}
						}
					}
				}
				JOINT LeftShoulder
				{
					OFFSET 0.000000 0.000000 0.000000 
					CHANNELS 3 Zrotation Yrotation Xrotation
					JOINT LeftArm
					{
						OFFSET 0.221378 0.056522 -0.010852 
						CHANNELS 3 Zrotation Yrotation Xrotation
						JOINT LeftForeArm
						{
							OFFSET 0.304071 -0.000000 -0.000000 
							CHANNELS 3 Zrotation Yrotation Xrotation
							JOINT LeftHand
							{
								OFFSET 0.209721 -0.000000 0.000000 
								CHANNELS 3 Zrotation Yrotation Xrotation
								JOINT LeftFingerBase
								{
									OFFSET 0.000000 0.000000 0.000000 
									CHANNELS 3 Zrotation Yrotation Xrotation
									JOINT LeftHandIndex1
									{
										OFFSET 0.041323 -0.000000 0.000000 
										CHANNELS 3 Zrotation Yrotation Xrotation
										End Site
										{
											OFFSET 0.033316 -0.000000 0.000000 
										}
									}
								}
								JOINT LThumb
								{
									OFFSET 0.000000 0.000000 0.000000 
									CHANNELS 3 Zrotation Yrotation Xrotation
									End Site
									{
										OFFSET 0.033825 -0.000000 0.033825 
									}
								}
							}
						}
					}
				}
				JOINT RightShoulder
				{
					OFFSET 0.000000 0.000000 0.000000 
					CHANNELS 3 Zrotation Yrotation Xrotation
					JOINT RightArm
					{
						OFFSET -0.218626 0.047496 -0.020385 
						CHANNELS 3 Zrotation Yrotation Xrotation
						JOINT RightForeArm
						{
							OFFSET -0.314156 -0.000000 0.000000 
							CHANNELS 3 Zrotation Yrotation Xrotation
							JOINT RightHand
							{
								OFFSET -0.210269 -0.000000 0.000000 
								CHANNELS 3 Zrotation Yrotation Xrotation
								JOINT RightFingerBase
								{
									OFFSET 0.000000 0.000000 0.000000 
									CHANNELS 3 Zrotation Yrotation Xrotation
									JOINT RightHandIndex1
									{
										OFFSET -0.045651 -0.000000 0.000000 
										CHANNELS 3 Zrotation Yrotation Xrotation
										End Site
										{
											OFFSET -0.036804 -0.000000 0.000000 
										}
									}
								}
								JOINT RThumb
								{
									OFFSET 0.000000 0.000000 0.000000 
									CHANNELS 3 Zrotation Yrotation Xrotation
									End Site
									{
										OFFSET -0.037366 -0.000000 0.037366 
									}
								}
							}
						}
					}
				}
			}
		}
	}
}
MOTION
Frames: 6
Frame Time: 0.033333
-0.023356 1.093050 0.000000 2.300000 -3.296600 -5.431300 0.000000 0.000000 0.000000 -28.680799 -3.623000 -6.038500 2.365200 9.588500 27.654200 0.628100 5.491000 -17.971001 0.015000 -0.791600 -2.175600 0.000000 0.000000 0.000000 18.310400 7.614900 -11.693900 -13.221700 -18.860701 69.812698 0.772600 -15.552900 -8.551900 -0.763700 5.580800 -15.572700 -1.485000 -0.038900 5.852400 0.084900 -0.138100 1.649500 0.930400 -0.067100 -1.579200 3.740000 7.973800 -8.231100 -3.837700 10.550800 5.695500 -1.278000 5.152600 3.776200 -0.000000 -0.000000 0.000000 -91.188400 3.967300 22.531099 21.537001 -32.449799 -6.335600 -0.000000 0.000000 -24.801500 23.521200 21.989300 9.256300 -7.125000 0.000000 -0.000000 -5.587600 53.662498 -1.193000 -0.000000 -0.000000 0.000000 85.584503 1.744800 32.479000 -16.814800 26.612900 -4.004000 0.000000 -0.000000 -11.062900 -22.491199 14.924700 -6.086700 7.125000 -0.000000 -0.000000 3.425700 -13.908500 2.506400 
-0.022344 1.091200 0.000000 2.280900 -1.497900 -5.216400 0.000000 0.000000 0.000000 -29.120600 -3.639200 -3.730600 2.334700 9.531000 27.470800 0.844400 4.301400 -19.433100 0.056200 -1.529100 -4.206100 0.000000 0.000000 0.000000 17.789700 9.221200 -16.454100 -12.560200 -18.617500 67.753700 0.580700 -14.702800 -12.046300 -0.839900 5.845800 -16.337799 -1.779000 -0.406500 6.082600 0.347400 -0.643700 1.631400 1.403600 -0.317500 -1.705700 3.478400 7.585800 -7.609500 -4.000600 10.077200 5.295000 -1.351000 4.918100 3.489500 -0.000000 -0.000000 0.000000 -90.031998 2.346500 27.045900 26.371099 -37.572800 -9.113000 -0.000000 0.000000 -26.753700 24.121500 22.074600 9.552100 -7.125000 0.000000 -0.000000 -4.994700 53.868500 -1.091100 -0.000000 -0.000000 0.000000 86.029900 -1.247500 29.299299 -14.398900 23.302200 -2.984100 0.000000 -0.000000 -11.535100 -22.534599 15.893900 -6.482700 7.125000 -0.000000 -0.000000 3.456000 -12.869500 2.604200 
-0.021025 1.087988 0.000000 1.871900 0.405100 -5.399900 0.000000 0.000000 0.000000 -29.141199 -3.229100 -0.559900 2.252400 9.373100 26.969500 1.104100 3.019400 -21.150101 0.076500 -1.784700 -4.911100 0.000000 0.000000 0.000000 17.526100 10.737100 -19.237499 -10.815700 -17.843700 62.181801 0.112000 -11.876400 -15.268000 -0.687500 5.300900 -14.768800 -1.691500 -0.947700 6.720800 0.696000 -1.361100 1.572300 1.780100 -0.670800 -2.088600 3.383000 7.571000 -7.658300 -3.781100 10.070200 5.878100 -1.251700 4.916200 3.681800 -0.000000 0.000000 0.000000 -89.024597 1.079400 30.042400 31.499001 -42.144100 -12.403300 -0.000000 0.000000 -27.611200 23.571100 19.231600 8.177900 -7.125000 0.000000 -0.000000 -4.731300 50.757500 -0.672500 -0.000000 0.000000 0.000000 86.645103 -4.260800 23.933201 -12.191800 20.091600 -2.167700 0.000000 -0.000000 -8.119300 -21.479000 14.492500 -5.623900 7.125000 -0.000000 -0.000000 4.088700 -14.484100 2.943800 
-0.020694 1.087850 0.000000 2.679400 2.080200 -5.549100 0.000000 0.000000 0.000000 -30.217199 -2.477100 3.323800 1.892100 8.637600 24.667999 1.166400 2.169000 -21.289400 0.054000 -1.498900 -4.122700 0.000000 0.000000 0.000000 15.827100 12.398700 -20.427799 -8.190100 -16.257299 53.244400 -0.254600 -9.370500 -17.085300 -0.629800 5.078000 -14.131100 -2.838200 -1.167400 6.953600 0.662600 -1.737300 1.779900 2.423300 -0.858100 -1.953800 2.419800 7.257200 -7.628200 -2.974900 9.673000 5.457500 -0.861300 4.734300 3.399800 0.000000 0.000000 0.000000 -87.854500 -0.271900 32.897301 37.411301 -46.459099 -16.537500 -0.000000 0.000000 -28.375601 24.933599 17.070400 7.771100 -7.125000 0.000000 -0.000000 -2.894900 48.666199 -0.262000 0.000000 0.000000 0.000000 87.393799 -7.193100 17.962700 -10.297800 17.204100 -1.561900 0.000000 -0.000000 -5.489800 -21.443899 16.118000 -6.223100 7.125000 -0.000000 -0.000000 4.199800 -12.766500 3.176700 
-0.020413 1.090119 0.000000 2.745300 3.678000 -4.915700 0.000000 0.000000 0.000000 -30.112900 -1.499600 7.092900 1.343000 7.337300 20.718599 1.056000 1.801300 -20.140699 0.134900 -2.367600 -6.522800 0.000000 0.000000 0.000000 14.471000 14.516100 -21.126801 -5.254800 -13.665200 41.912399 -0.264600 -9.413700 -17.259800 -0.807100 5.733500 -16.013100 -3.190700 -1.500200 6.341200 0.787800 -2.179700 1.986900 2.760400 -1.092300 -1.353400 2.571900 7.031600 -8.842300 -3.131200 9.350100 5.755700 -0.907400 4.554500 3.749100 -0.000000 0.000000 0.000000 -86.931702 -1.962800 34.771999 43.129902 -49.818699 -20.799900 -0.000000 0.000000 -28.655500 25.841600 14.729800 7.020200 -7.125000 0.000000 -0.000000 -1.611900 46.257099 -0.050000 -0.000000 0.000000 0.000000 88.272003 -9.171300 10.810600 -8.377500 14.162800 -1.042500 0.000000 -0.000000 -0.743700 -21.403999 18.440001 -7.067800 7.125000 -0.000000 -0.000000 4.375500 -10.321200 3.531300 
-0.021131 1.089856 0.000000 2.277300 4.980300 -4.722700 0.000000 0.000000 0.000000 -29.152300 -0.471400 11.055300 0.947500 6.199100 17.363199 1.041500 0.602300 -19.515900 0.059000 -1.567700 -4.312400 0.000000 0.000000 0.000000 14.279700 16.037800 -20.559700 -2.918600 -10.562100 30.816999 -0.487200 -8.844600 -19.251400 -0.907600 6.070800 -16.990000 -3.059400 -1.777300 6.338500 1.141300 -2.533100 2.038100 3.074100 -1.272000 -1.263500 2.010100 6.581000 -8.736400 -3.190200 8.793200 4.930300 -0.885600 4.273200 3.393100 0.000000 -0.000000 0.000000 -86.184998 -2.754100 36.150501 48.682400 -52.450100 -25.125700 -0.000000 0.000000 -29.625500 26.919800 12.846600 6.441300 -7.125000 0.000000 -0.000000 -0.354400 44.326099 0.005900 0.000000 -0.000000 0.000000 88.784897 -11.838300 4.377100 -7.013600 11.941600 -0.734500 0.000000 0.000000 4.502300 -21.402201 14.636600 -5.656000 7.125000 -0.000000 -0.000000 4.148200 -14.339800 2.999600 
